<svg width="20" height="18" viewBox="0 0 20 18" fill="none" xmlns="http://www.w3.org/2000/svg">
<path d="M3.59859 7.04477H17.0416M4.18351 0.791992V4.00778M7.96123 0.791992V4.00778M12.6815 0.791992V4.00778M16.4592 0.791992V4.00778M2.08903 2.64382H18.5537C18.7474 2.64382 18.9332 2.72078 19.0702 2.85778C19.2072 2.99478 19.2842 3.18058 19.2842 3.37433V15.1443C19.2842 15.5412 19.1265 15.9219 18.8458 16.2026C18.5651 16.4834 18.1844 16.641 17.7874 16.641H2.8553C2.45833 16.641 2.07762 16.4834 1.79692 16.2026C1.51622 15.9219 1.35852 15.5412 1.35852 15.1443V3.37433C1.35852 3.18058 1.43548 2.99478 1.57248 2.85778C1.70948 2.72078 1.89529 2.64382 2.08903 2.64382Z" stroke="#093030" stroke-width="1.27712" stroke-linecap="round" stroke-linejoin="round"/>
</svg>
