<svg width="57" height="53" viewBox="0 0 57 53" fill="none" xmlns="http://www.w3.org/2000/svg">
<rect width="57" height="53" rx="22" fill="#FBE538"/>
<path d="M15 31.4738L28.5 38L42 31.4738M15 26.3985L28.0642 32.7095C28.1961 32.7723 28.3413 32.8049 28.4885 32.8049C28.6357 32.8049 28.7809 32.7723 28.9129 32.7095L41.9885 26.3875M15.7513 21.8252L28.2476 27.8935C28.3262 27.9305 28.4125 27.9498 28.5 27.9498C28.5875 27.9498 28.6738 27.9305 28.7523 27.8935L41.2545 21.8252C41.3244 21.7911 41.3831 21.739 41.4242 21.6747C41.4652 21.6105 41.4869 21.5365 41.4869 21.4611C41.4869 21.3857 41.4652 21.3117 41.4242 21.2475C41.3831 21.1832 41.3244 21.1311 41.2545 21.097L28.7523 15.0563C28.6738 15.0192 28.5875 15 28.5 15C28.4125 15 28.3262 15.0192 28.2476 15.0563L15.7513 21.1246C15.6883 21.1608 15.6362 21.2121 15.6 21.2735C15.5638 21.3349 15.5448 21.4043 15.5448 21.4749C15.5448 21.5455 15.5638 21.6148 15.6 21.6762C15.6362 21.7376 15.6883 21.789 15.7513 21.8252Z" stroke="#052224" stroke-width="2" stroke-linecap="round" stroke-linejoin="round"/>
</svg>
