<svg width="13" height="28" viewBox="0 0 13 28" fill="none" xmlns="http://www.w3.org/2000/svg">
<path d="M1 19.2631C1 20.6589 1.5794 21.9975 2.61075 22.9845C3.6421 23.9715 5.04089 24.5261 6.49943 24.5261M6.49943 24.5261C7.95798 24.5261 9.35681 23.9715 10.3882 22.9845C11.4195 21.9975 11.9989 20.6589 11.9989 19.2631C12.0164 18.4492 11.8243 17.6437 11.4396 16.9177C11.0549 16.1918 10.4893 15.5676 9.79288 15.1002C7.62417 13.8454 4.62899 14.22 2.72749 12.5251C2.18711 12.0406 1.75533 11.456 1.45836 10.8068C1.16138 10.1576 1.00544 9.45749 1 8.74884C0.999999 7.35245 1.5792 6.01314 2.61037 5.02519C3.64154 4.03723 5.04032 3.48145 6.49943 3.47987C7.95855 3.48145 9.35733 4.03723 10.3885 5.02519C11.4197 6.01314 11.9989 7.35245 11.9989 8.74884M6.49943 24.5261L6.49944 27M6.49944 1V3.47392" stroke="#093030" stroke-width="2" stroke-linecap="round" stroke-linejoin="round"/>
</svg>
