<svg width="19" height="30" viewBox="0 0 19 30" fill="none" xmlns="http://www.w3.org/2000/svg">
<path d="M1.43045 12.0735C1.33982 11.5864 1.26043 11.0823 1.19812 10.5668C0.580698 5.53111 1.67965 1.25441 3.65088 1.01084C5.62211 0.767267 7.72931 4.65876 8.34673 9.69446C8.41471 10.2609 8.46569 10.8557 8.49402 11.3938M1.77031 3.76943L4.23435 4.6984M1.02827 7.04348L4.05875 8.35764M3.63958 25.1358H15.1781M9.54191 12.2774C9.13755 11.8924 8.81563 11.4294 8.59557 10.9162C8.37552 10.4031 8.26192 9.85061 8.26173 9.29229C8.26173 8.20109 8.69492 7.1545 9.46598 6.38237C10.237 5.61025 11.2829 5.17572 12.3741 5.17422C13.4663 5.17422 14.5137 5.60808 15.286 6.38037C16.0583 7.15265 16.4922 8.20011 16.4922 9.29229C16.4931 9.75306 16.4165 10.2107 16.2657 10.6461M12.3741 6.53934C12.3741 6.53934 12.2494 3.95634 14.198 2.71016M1.27755 12.2774L2.41044 10.7764C2.49242 10.6695 2.59788 10.5828 2.7187 10.5232C2.83952 10.4636 2.97244 10.4326 3.10716 10.4326C3.24188 10.4326 3.37481 10.4636 3.49562 10.5232C3.61644 10.5828 3.7219 10.6695 3.80388 10.7764L4.85172 12.1472C4.89237 12.2011 4.94505 12.2449 5.0055 12.275C5.06596 12.3052 5.13253 12.3209 5.20008 12.3209C5.26763 12.3209 5.33434 12.3052 5.39479 12.275C5.45525 12.2449 5.50779 12.2011 5.54844 12.1472L6.59642 10.7764C6.6784 10.6695 6.78385 10.5828 6.90467 10.5232C7.02549 10.4636 7.15841 10.4326 7.29313 10.4326C7.42785 10.4326 7.56078 10.4636 7.6816 10.5232C7.80242 10.5828 7.90787 10.6695 7.98985 10.7764C7.98985 10.7764 8.5563 11.5297 8.9868 12.1018C9.03331 12.1629 9.09338 12.2124 9.16216 12.2465C9.23093 12.2805 9.30654 12.2982 9.38329 12.2982C9.46004 12.2982 9.53578 12.2805 9.60455 12.2465C9.67333 12.2124 9.7334 12.1629 9.77991 12.1018L10.7994 10.7877C10.8808 10.6808 10.9858 10.5943 11.1061 10.5346C11.2265 10.475 11.359 10.444 11.4934 10.444C11.6277 10.444 11.7602 10.475 11.8806 10.5346C12.0009 10.5943 12.1059 10.6808 12.1873 10.7877L13.2351 12.1585C13.2764 12.2125 13.3295 12.2563 13.3904 12.2864C13.4514 12.3166 13.5184 12.3322 13.5864 12.3322C13.6544 12.3322 13.7213 12.3166 13.7822 12.2864C13.8431 12.2563 13.8963 12.2125 13.9375 12.1585L14.9855 10.7877C15.0669 10.6808 15.1719 10.5943 15.2922 10.5346C15.4126 10.475 15.545 10.444 15.6793 10.444C15.8136 10.444 15.9462 10.475 16.0665 10.5346C16.1869 10.5943 16.2919 10.6808 16.3733 10.7877L17.5062 12.2888C17.6661 12.5033 17.7534 12.7632 17.7554 13.0308V27.005C17.7554 27.1932 17.7183 27.3796 17.6463 27.5535C17.5742 27.7273 17.4687 27.8853 17.3357 28.0184C17.2026 28.1515 17.0446 28.257 16.8707 28.329C16.6968 28.401 16.5104 28.4381 16.3222 28.4381H2.42745C2.04835 28.4366 1.68518 28.285 1.41764 28.0164C1.15011 27.7478 0.999997 27.3841 1 27.005V13.0195C1.00723 12.7481 1.10492 12.4869 1.27755 12.2774Z" stroke="#052224" stroke-width="1.69934" stroke-linecap="round" stroke-linejoin="round"/>
</svg>
