<svg width="30" height="30" viewBox="0 0 30 30" fill="none" xmlns="http://www.w3.org/2000/svg">
<rect width="30" height="30" rx="15" fill="#DFF7E2"/>
<path d="M21.3891 20.4892L21.3954 19.8464H21.3891V20.4892ZM22.0853 18.9694L21.5607 19.3409L21.5692 19.353L21.5783 19.3647L22.0853 18.9694ZM20.479 15.0977L21.1123 14.9866L21.1109 14.9791L20.479 15.0977ZM19.1012 8.43707L19.6083 8.04202L19.6071 8.04038L19.1012 8.43707ZM15.0003 6.40052L15.0017 5.75766L14.9982 5.75767L15.0003 6.40052ZM10.8994 8.43707L10.3939 8.0399L10.3922 8.04203L10.8994 8.43707ZM9.52513 15.0977L8.89322 14.9793L8.89194 14.9866L9.52513 15.0977ZM7.91885 18.9694L8.42235 19.3691L8.4333 19.3553L8.44349 19.3409L7.91885 18.9694ZM8.61502 20.4892V19.8462L8.60282 19.8465L8.61502 20.4892ZM14.361 6.40053C14.361 6.75557 14.6489 7.04339 15.0039 7.04339C15.3589 7.04339 15.6468 6.75557 15.6468 6.40053H14.361ZM15.6468 5.14285C15.6468 4.78781 15.3589 4.5 15.0039 4.5C14.6489 4.5 14.361 4.78781 14.361 5.14285H15.6468ZM15.0003 24L15.0016 23.3571H15.0003L15.0003 24ZM21.3891 20.4892L21.3829 21.132C21.6804 21.1349 21.9703 21.0488 22.2183 20.8869L21.867 20.3485L21.5157 19.8102C21.4771 19.8354 21.4355 19.8468 21.3954 19.8464L21.3891 20.4892ZM21.867 20.3485L22.2183 20.8869C22.466 20.7253 22.6604 20.4959 22.7827 20.2289L22.1982 19.9612L21.6138 19.6935C21.59 19.7454 21.5546 19.7848 21.5157 19.8102L21.867 20.3485ZM22.1982 19.9612L22.7827 20.2289C22.9049 19.9621 22.9513 19.6663 22.9182 19.3753L22.2795 19.4481L21.6407 19.5208C21.6476 19.5811 21.6377 19.6413 21.6138 19.6935L22.1982 19.9612ZM22.2795 19.4481L22.9182 19.3753C22.8851 19.0843 22.7732 18.8062 22.5923 18.5741L22.0853 18.9694L21.5783 19.3647C21.611 19.4066 21.6339 19.4606 21.6407 19.5208L22.2795 19.4481ZM22.0853 18.9694L22.61 18.5979C21.855 17.5318 21.342 16.2965 21.1122 14.9866L20.479 15.0977L19.8458 15.2087C20.1081 16.7033 20.6941 18.117 21.5607 19.3409L22.0853 18.9694ZM20.479 15.0977L21.1109 14.9791C21.012 14.4525 20.9697 13.9087 20.9404 13.3384C20.9118 12.7822 20.895 12.1754 20.8439 11.5928C20.7397 10.4079 20.4847 9.16708 19.6083 8.04203L19.1012 8.43707L18.594 8.83212C19.2478 9.67143 19.4678 10.621 19.5631 11.7054C19.6116 12.2575 19.6256 12.805 19.6564 13.4044C19.6865 13.9898 19.7321 14.6029 19.8472 15.2162L20.479 15.0977ZM19.1012 8.43707L19.6071 8.04038C19.0511 7.33143 18.3506 6.75759 17.5542 6.36208L17.2682 6.93785L16.9823 7.51361C17.6038 7.82225 18.1551 8.27237 18.5953 8.83376L19.1012 8.43707ZM17.2682 6.93785L17.5542 6.36208C16.7576 5.9665 15.8859 5.75968 15.0017 5.75767L15.0003 6.40052L14.9988 7.04338C15.6837 7.04494 16.3609 7.20505 16.9823 7.51361L17.2682 6.93785ZM15.0003 6.40052L14.9982 5.75767C14.1143 5.76057 13.2431 5.96777 12.4469 6.36319L12.7328 6.93896L13.0187 7.51473C13.6402 7.20611 14.3174 7.04563 15.0024 7.04337L15.0003 6.40052ZM12.7328 6.93896L12.4469 6.36319C11.6508 6.75855 10.9503 7.33176 10.3939 8.0399L10.8994 8.43707L11.4049 8.83424C11.8456 8.27325 12.3972 7.82341 13.0187 7.51473L12.7328 6.93896ZM10.8994 8.43707L10.3922 8.04203C9.51573 9.16724 9.26166 10.4073 9.15846 11.5919C9.10773 12.1741 9.09139 12.781 9.06315 13.3372C9.03419 13.9076 8.99209 14.4518 8.89326 14.9793L9.52513 15.0977L10.157 15.2161C10.2721 14.6017 10.3175 13.9881 10.3472 13.4024C10.3777 12.8026 10.3912 12.2554 10.4393 11.7035C10.5337 10.6197 10.7529 9.67127 11.4065 8.83212L10.8994 8.43707ZM9.52513 15.0977L8.89194 14.9866C8.66212 16.2965 8.14912 17.5318 7.3942 18.5979L7.91885 18.9694L8.44349 19.3409C9.31011 18.117 9.89609 16.7033 10.1583 15.2087L9.52513 15.0977ZM7.91885 18.9694L7.41535 18.5697C7.23137 18.8015 7.11713 19.0805 7.08258 19.373L7.721 19.4484L8.35941 19.5238C8.3665 19.4638 8.3896 19.4103 8.42235 19.3691L7.91885 18.9694ZM7.721 19.4484L7.08258 19.373C7.04803 19.6654 7.0941 19.963 7.21696 20.2312L7.80142 19.9635L8.38588 19.6957C8.36209 19.6438 8.35232 19.5838 8.35941 19.5238L7.721 19.4484ZM7.80142 19.9635L7.21696 20.2312C7.3399 20.4996 7.5359 20.7299 7.78572 20.8913L8.13462 20.3514L8.48353 19.8115C8.44488 19.7865 8.40959 19.7475 8.38588 19.6957L7.80142 19.9635ZM8.13462 20.3514L7.78572 20.8913C8.03588 21.053 8.32807 21.1376 8.62721 21.132L8.61502 20.4892L8.60282 19.8465C8.56312 19.8472 8.52183 19.8362 8.48353 19.8115L8.13462 20.3514ZM8.61502 20.4892V21.1321H21.3891V20.4892V19.8464H8.61502V20.4892ZM15.0039 6.40053H15.6468V5.14285H15.0039H14.361V6.40053H15.0039ZM16.835 22.0774L16.1921 22.0786C16.1925 22.2507 16.1603 22.4205 16.0982 22.578L16.6963 22.8137L17.2944 23.0495C17.4163 22.7401 17.4785 22.4094 17.4779 22.0762L16.835 22.0774ZM16.6963 22.8137L16.0982 22.578C16.0362 22.7355 15.9458 22.8767 15.8336 22.9942L16.2987 23.438L16.7637 23.8818C16.9925 23.6421 17.1724 23.359 17.2944 23.0495L16.6963 22.8137ZM16.2987 23.438L15.8336 22.9942C15.7215 23.1116 15.5901 23.203 15.4476 23.2647L15.703 23.8547L15.9583 24.4446C16.2615 24.3134 16.5349 24.1216 16.7637 23.8818L16.2987 23.438ZM15.703 23.8547L15.4476 23.2647C15.3052 23.3263 15.1537 23.3575 15.0016 23.3571L15.0003 24L14.9989 24.6428C15.329 24.6435 15.6551 24.5759 15.9583 24.4446L15.703 23.8547ZM15.0003 24L15.0003 23.3571C14.8483 23.3571 14.6971 23.3258 14.555 23.264L14.2987 23.8536L14.0425 24.4431C14.3451 24.5747 14.6707 24.6428 15.0003 24.6428L15.0003 24ZM14.2987 23.8536L14.555 23.264C14.4128 23.2022 14.2816 23.1107 14.1697 22.9933L13.7042 23.4366L13.2387 23.88C13.467 24.1197 13.7399 24.3116 14.0425 24.4431L14.2987 23.8536ZM13.7042 23.4366L14.1697 22.9933C14.0578 22.8758 13.9677 22.7347 13.9057 22.5774L13.3075 22.8129L12.7094 23.0483C12.831 23.3575 13.0104 23.6403 13.2387 23.88L13.7042 23.4366ZM13.3075 22.8129L13.9057 22.5774C13.8438 22.42 13.8117 22.2505 13.8121 22.0786L13.1692 22.0774L12.5263 22.0762C12.5257 22.409 12.5877 22.7392 12.7094 23.0483L13.3075 22.8129Z" fill="#093030"/>
</svg>
