<svg width="23" height="22" viewBox="0 0 23 22" fill="none" xmlns="http://www.w3.org/2000/svg">
<path d="M11.4902 1H11.5068C11.6523 0.998575 11.7965 1.02527 11.9307 1.07812L12.0615 1.13965C12.1884 1.20966 12.2995 1.3036 12.3896 1.41504L12.4727 1.53125L12.4785 1.54102L14.8672 5.3291L14.8711 5.33496C15.2526 5.93053 15.8199 6.37985 16.4805 6.61621L16.7695 6.7041L16.7725 6.70508L21.126 7.79688H21.127C21.2696 7.83258 21.4032 7.89548 21.5215 7.98047L21.6348 8.07227C21.742 8.17207 21.8287 8.29096 21.8906 8.42188L21.9443 8.55664C21.9893 8.69464 22.0074 8.83954 21.998 8.9834L21.9795 9.12695C21.9518 9.26945 21.8968 9.40551 21.8184 9.52734L21.7314 9.64453L21.7305 9.64551L18.8545 13.0801C18.3991 13.6235 18.1428 14.3021 18.1211 15.0049L18.126 15.3066V15.3096L18.4277 19.7725C18.4354 19.8897 18.4254 20.0074 18.3975 20.1211L18.3633 20.2334C18.3236 20.3443 18.2667 20.4482 18.1953 20.542L18.1191 20.6328C18.0381 20.7192 17.9441 20.7926 17.8408 20.8506L17.7344 20.9033C17.589 20.9664 17.4322 20.9985 17.2734 20.999C17.1615 20.9987 17.0504 20.984 16.9434 20.9531L16.8369 20.917L12.6738 19.251L12.667 19.249L12.3838 19.1523C12.097 19.0698 11.7994 19.0282 11.5 19.0273L11.4971 19.9609L11.5 19.0264L11.4922 19.0273C11.1947 19.0288 10.8992 19.071 10.6143 19.1533L10.333 19.249L10.3262 19.251L6.16309 20.917C6.02393 20.9718 5.87542 20.9988 5.72559 20.999C5.60666 20.9985 5.48869 20.9812 5.37598 20.9453L5.26465 20.9033C5.15562 20.8559 5.05487 20.7922 4.96582 20.7148L4.88086 20.6328C4.79977 20.5463 4.73237 20.4479 4.68164 20.3418L4.63672 20.2334C4.58389 20.0857 4.56199 19.9288 4.57227 19.7725L4.87402 15.3096V15.3066C4.92671 14.4981 4.66517 13.701 4.14453 13.0801H4.14551L1.26953 9.64551L1.26855 9.64453L1.18164 9.52734C1.12943 9.44623 1.08783 9.3589 1.05762 9.26758L1.02051 9.12695C0.992816 8.98445 0.993405 8.83831 1.02051 8.69629L1.05664 8.55664C1.10172 8.41834 1.17275 8.29021 1.26562 8.17871L1.36523 8.07227C1.47223 7.97272 1.59738 7.8948 1.7334 7.8418L1.87305 7.79688H1.87402L6.22754 6.70508L6.22852 6.7041C6.91552 6.53074 7.52225 6.13332 7.95312 5.57812L8.12695 5.33008L10.5205 1.54199L10.5273 1.53125C10.6026 1.40908 10.7008 1.30268 10.8164 1.21777L10.9375 1.14062C11.1063 1.04728 11.2968 0.998585 11.4902 1Z" stroke="#093030" stroke-width="2"/>
</svg>
