<svg width="28" height="28" viewBox="0 0 28 28" fill="none" xmlns="http://www.w3.org/2000/svg">
<path d="M13.7168 5.30499V15.4047M8.5621 23.1877V25.0796C8.5621 25.4582 8.41174 25.8213 8.14405 26.089C7.87635 26.3566 7.51323 26.507 7.13465 26.507H5.61095C5.23236 26.507 4.86925 26.3566 4.60155 26.089C4.33385 25.8213 4.18349 25.4582 4.18349 25.0796V21.1145M18.8884 23.1877V25.0796C18.8884 25.4582 19.0388 25.8213 19.3065 26.089C19.5742 26.3566 19.9373 26.507 20.3159 26.507H21.8396C22.2181 26.507 22.5813 26.3566 22.849 26.089C23.1167 25.8213 23.267 25.4582 23.267 25.0796V21.1145M11.6322 20.718H15.7956M6.53988 17.6818C6.53988 17.6818 6.38127 19.7437 8.65838 19.4718M20.888 17.6818C20.888 17.6818 21.0466 19.7437 18.7695 19.4718M23.2897 6.97034H24.8134C25.0289 6.97034 25.2423 7.01287 25.4412 7.09549C25.6402 7.17812 25.8209 7.29919 25.973 7.4518C26.1251 7.60442 26.2455 7.78555 26.3274 7.98482C26.4094 8.18409 26.4512 8.39759 26.4505 8.61305V11.1847M4.16082 6.97034H2.63712C2.42166 6.97034 2.20825 7.01287 2.00927 7.09549C1.81028 7.17812 1.62962 7.29919 1.47753 7.4518C1.32545 7.60442 1.20502 7.78555 1.12309 7.98482C1.04116 8.18409 0.999264 8.39759 1.00001 8.61305V11.1847M6.33597 1H21.0975C22.2989 1 23.2727 1.97385 23.2727 3.17515V21.0182C23.2727 22.2195 22.2989 23.1933 21.0975 23.1933H6.33597C5.13467 23.1933 4.16082 22.2195 4.16082 21.0182V3.17515C4.16082 1.97385 5.13467 1 6.33597 1ZM6.26234 5.30499H21.1655C21.7229 5.30499 22.2574 5.5264 22.6515 5.92051C23.0456 6.31462 23.267 6.84914 23.267 7.4065V15.4047H4.16082V7.4065C4.16082 6.84914 4.38223 6.31462 4.77634 5.92051C5.17045 5.5264 5.70498 5.30499 6.26234 5.30499Z" stroke="#052224" stroke-width="1.69934" stroke-linecap="round" stroke-linejoin="round"/>
</svg>
