<svg width="16" height="21" viewBox="0 0 16 21" fill="none" xmlns="http://www.w3.org/2000/svg">
<path d="M14.3891 16.4892L14.3954 15.8464H14.3891V16.4892ZM15.0853 14.9694L14.5607 15.3409L14.5692 15.353L14.5783 15.3647L15.0853 14.9694ZM13.479 11.0977L14.1123 10.9866L14.1109 10.9791L13.479 11.0977ZM12.1012 4.43707L12.6083 4.04202L12.6071 4.04038L12.1012 4.43707ZM8.00028 2.40052L8.00174 1.75766L7.99816 1.75767L8.00028 2.40052ZM3.89936 4.43707L3.39387 4.0399L3.39221 4.04203L3.89936 4.43707ZM2.52513 11.0977L1.89322 10.9793L1.89194 10.9866L2.52513 11.0977ZM0.918847 14.9694L1.42235 15.3691L1.4333 15.3553L1.44349 15.3409L0.918847 14.9694ZM1.61502 16.4892L1.61502 15.8462L1.60282 15.8465L1.61502 16.4892ZM7.36104 2.40053C7.36104 2.75557 7.64886 3.04339 8.0039 3.04339C8.35894 3.04339 8.64676 2.75557 8.64676 2.40053H7.36104ZM8.64676 1.14285C8.64676 0.787813 8.35894 0.499996 8.0039 0.499996C7.64886 0.499996 7.36104 0.787813 7.36104 1.14285H8.64676ZM8.00028 20L8.00162 19.3571L8.00028 19.3571L8.00028 20ZM14.3891 16.4892L14.3829 17.132C14.6804 17.1349 14.9703 17.0488 15.2183 16.8869L14.867 16.3485L14.5157 15.8102C14.4771 15.8354 14.4355 15.8468 14.3954 15.8464L14.3891 16.4892ZM14.867 16.3485L15.2183 16.8869C15.466 16.7253 15.6604 16.4959 15.7827 16.2289L15.1982 15.9612L14.6138 15.6935C14.59 15.7454 14.5546 15.7848 14.5157 15.8102L14.867 16.3485ZM15.1982 15.9612L15.7827 16.2289C15.9049 15.9621 15.9513 15.6663 15.9182 15.3753L15.2795 15.4481L14.6407 15.5208C14.6476 15.5811 14.6377 15.6413 14.6138 15.6935L15.1982 15.9612ZM15.2795 15.4481L15.9182 15.3753C15.8851 15.0843 15.7732 14.8062 15.5923 14.5741L15.0853 14.9694L14.5783 15.3647C14.611 15.4066 14.6339 15.4606 14.6407 15.5208L15.2795 15.4481ZM15.0853 14.9694L15.61 14.5979C14.855 13.5318 14.342 12.2965 14.1122 10.9866L13.479 11.0977L12.8458 11.2087C13.1081 12.7033 13.6941 14.117 14.5607 15.3409L15.0853 14.9694ZM13.479 11.0977L14.1109 10.9791C14.012 10.4525 13.9697 9.9087 13.9404 9.33844C13.9119 8.78221 13.895 8.17539 13.8439 7.59283C13.7397 6.40792 13.4847 5.16708 12.6083 4.04203L12.1012 4.43707L11.594 4.83212C12.2478 5.67143 12.4678 6.62102 12.5631 7.70538C12.6116 8.25746 12.6256 8.80499 12.6564 9.40441C12.6865 9.9898 12.7321 10.6029 12.8472 11.2162L13.479 11.0977ZM12.1012 4.43707L12.6071 4.04038C12.0511 3.33143 11.3506 2.75759 10.5542 2.36208L10.2682 2.93785L9.98229 3.51361C10.6038 3.82225 11.1551 4.27237 11.5953 4.83376L12.1012 4.43707ZM10.2682 2.93785L10.5542 2.36208C9.75759 1.9665 8.88589 1.75968 8.00174 1.75767L8.00028 2.40052L7.99881 3.04338C8.68374 3.04494 9.36095 3.20505 9.98229 3.51361L10.2682 2.93785ZM8.00028 2.40052L7.99816 1.75767C7.11435 1.76057 6.24313 1.96777 5.44688 2.36319L5.73282 2.93896L6.01875 3.51473C6.64019 3.20611 7.31738 3.04563 8.00239 3.04337L8.00028 2.40052ZM5.73282 2.93896L5.44688 2.36319C4.65077 2.75855 3.95027 3.33176 3.39387 4.0399L3.89936 4.43707L4.40485 4.83424C4.84563 4.27325 5.39717 3.82341 6.01875 3.51473L5.73282 2.93896ZM3.89936 4.43707L3.39221 4.04203C2.51573 5.16724 2.26166 6.40733 2.15846 7.59189C2.10773 8.17412 2.09139 8.78099 2.06315 9.33722C2.03419 9.90756 1.99209 10.4518 1.89326 10.9793L2.52513 11.0977L3.15699 11.2161C3.27209 10.6017 3.31747 9.98809 3.34721 9.40242C3.37766 8.80265 3.39124 8.2554 3.43932 7.70348C3.53374 6.61971 3.75286 5.67127 4.40652 4.83212L3.89936 4.43707ZM2.52513 11.0977L1.89194 10.9866C1.66212 12.2965 1.14912 13.5318 0.394203 14.5979L0.918847 14.9694L1.44349 15.3409C2.31011 14.117 2.89609 12.7033 3.15831 11.2087L2.52513 11.0977ZM0.918847 14.9694L0.415348 14.5697C0.231365 14.8015 0.11713 15.0805 0.0825798 15.373L0.720997 15.4484L1.35941 15.5238C1.3665 15.4638 1.3896 15.4103 1.42235 15.3691L0.918847 14.9694ZM0.720997 15.4484L0.0825798 15.373C0.0480334 15.6654 0.0940998 15.963 0.216963 16.2312L0.801421 15.9635L1.38588 15.6957C1.36209 15.6438 1.35232 15.5838 1.35941 15.5238L0.720997 15.4484ZM0.801421 15.9635L0.216963 16.2312C0.339904 16.4996 0.535902 16.7299 0.785717 16.8913L1.13462 16.3514L1.48353 15.8115C1.44488 15.7865 1.40959 15.7475 1.38588 15.6957L0.801421 15.9635ZM1.13462 16.3514L0.785717 16.8913C1.03588 17.053 1.32807 17.1376 1.62721 17.132L1.61502 16.4892L1.60282 15.8465C1.56312 15.8472 1.52183 15.8362 1.48353 15.8115L1.13462 16.3514ZM1.61502 16.4892V17.1321H14.3891V16.4892V15.8464H1.61502V16.4892ZM8.0039 2.40053H8.64676V1.14285H8.0039H7.36104V2.40053H8.0039ZM9.835 18.0774L9.19214 18.0786C9.19246 18.2507 9.16033 18.4205 9.09823 18.578L9.6963 18.8137L10.2944 19.0495C10.4163 18.7401 10.4785 18.4094 10.4779 18.0762L9.835 18.0774ZM9.6963 18.8137L9.09823 18.578C9.03616 18.7355 8.94576 18.8767 8.83361 18.9942L9.29868 19.438L9.76375 19.8818C9.99253 19.6421 10.1724 19.359 10.2944 19.0495L9.6963 18.8137ZM9.29868 19.438L8.83361 18.9942C8.72152 19.1116 8.59006 19.203 8.4476 19.2647L8.70296 19.8547L8.95831 20.4446C9.26148 20.3134 9.53491 20.1216 9.76375 19.8818L9.29868 19.438ZM8.70296 19.8547L8.4476 19.2647C8.3052 19.3263 8.15374 19.3575 8.00162 19.3571L8.00028 20L7.99895 20.6428C8.32897 20.6435 8.65509 20.5759 8.95831 20.4446L8.70296 19.8547ZM8.00028 20L8.00028 19.3571C7.84834 19.3571 7.69711 19.3258 7.55497 19.264L7.29871 19.8536L7.04245 20.4431C7.3451 20.5747 7.67069 20.6428 8.00028 20.6428L8.00028 20ZM7.29871 19.8536L7.55497 19.264C7.41276 19.2022 7.28156 19.1107 7.16972 18.9933L6.70421 19.4366L6.2387 19.88C6.46703 20.1197 6.73988 20.3116 7.04245 20.4431L7.29871 19.8536ZM6.70421 19.4366L7.16972 18.9933C7.05783 18.8758 6.96765 18.7347 6.90572 18.5774L6.30754 18.8129L5.70935 19.0483C5.83104 19.3575 6.01043 19.6403 6.2387 19.88L6.70421 19.4366ZM6.30754 18.8129L6.90572 18.5774C6.84378 18.42 6.81173 18.2505 6.81205 18.0786L6.1692 18.0774L5.52634 18.0762C5.52571 18.409 5.58768 18.7392 5.70935 19.0483L6.30754 18.8129Z" fill="#093030"/>
</svg>
