<?xml version="1.0" encoding="UTF-8"?>
<svg xmlns="http://www.w3.org/2000/svg" xmlns:xlink="http://www.w3.org/1999/xlink" width="0" height="0">
<symbol id="More" width="43" height="43" viewBox="0 0 43 43" fill="none">
<path d="M2 20.2H41M21.0667 41V2" stroke="#052224" stroke-width="4" stroke-linecap="round"/>
</symbol>

<!-- Nav Bawah -->
<symbol id="Profile" width="28" height="32" viewBox="0 0 24 29" fill="none">
<path d="M1.76856 19.3287C1.23053 20.6656 0.970146 22.0944 1.00272 23.5313C1.00272 29.4896 22.9864 29.4896 22.9973 23.5313C23.0299 22.0944 22.7695 20.6656 22.2315 19.3287C21.6935 17.9919 20.8886 16.7739 19.8642 15.7464C18.8397 14.7188 17.6164 13.9024 16.2659 13.345C14.9155 12.7876 13.4651 12.5005 12 12.5005C10.5349 12.5005 9.08451 12.7876 7.73405 13.345C6.38359 13.9024 5.16026 14.7188 4.13584 15.7464C3.11142 16.7739 2.30659 17.9919 1.76856 19.3287Z" stroke="#052224" stroke-width="2" stroke-linecap="round" stroke-linejoin="round"/>
<path d="M11.9919 9.66262C14.4303 9.66262 16.4071 7.72342 16.4071 5.33131C16.4071 2.93919 14.4303 1 11.9919 1C9.55339 1 7.57663 2.93919 7.57663 5.33131C7.57663 7.72342 9.55339 9.66262 11.9919 9.66262Z" stroke="#052224" stroke-width="2" stroke-linecap="round" stroke-linejoin="round"/>
</symbol>

<symbol id="Category" width="38" height="34" viewBox="-1 -3 35 35" fill="none">
<path d="M1.00002 17.4738L14.5 24L28 17.4738M1 12.3985L14.0642 18.7095C14.1961 18.7723 14.3413 18.8049 14.4885 18.8049C14.6357 18.8049 14.7809 18.7723 14.9129 18.7095L27.9885 12.3875M1.75131 7.8252L14.2476 13.8935C14.3262 13.9305 14.4125 13.9498 14.5 13.9498C14.5875 13.9498 14.6738 13.9305 14.7523 13.8935L27.2545 7.8252C27.3244 7.79109 27.3831 7.73901 27.4242 7.67474C27.4652 7.61047 27.4869 7.53652 27.4869 7.4611C27.4869 7.38567 27.4652 7.31173 27.4242 7.24746C27.3831 7.18319 27.3244 7.13111 27.2545 7.097L14.7523 1.05627C14.6738 1.01925 14.5875 1 14.5 1C14.4125 1 14.3262 1.01925 14.2476 1.05627L1.75131 7.12458C1.68835 7.16082 1.63621 7.21214 1.60002 7.27354C1.56384 7.33494 1.54479 7.40431 1.54479 7.47489C1.54479 7.54547 1.56384 7.61484 1.60002 7.67624C1.63621 7.73763 1.68835 7.78896 1.75131 7.8252Z" stroke="#052224" stroke-width="2" stroke-linecap="round" stroke-linejoin="round"/>
</symbol>

<symbol id="Transactions" width="32" height="32" viewBox="0 0 35 27" fill="none">
<path d="M14.7793 13.5056H24.0604V18.5395L34 9.76975L24.0604 1V6.03386H14.7793M20.2207 13.4944H10.9396V8.4605L1 17.2302L10.9396 26V20.9661H20.2207" stroke="#052224" stroke-width="2" stroke-linecap="round" stroke-linejoin="round"/>
</symbol>

<symbol id="Analysis" width="33" height="33" viewBox="0 0 33 33" fill="none">
<path d="M25.7654 25.4665L32 31.5M7.45112 9.79609V21.2765M11.4073 21.2765V15.9605M19.5415 21.2765V18.6212M15.3635 21.2765V9.79609M23.5627 21.2765V14.1851M30.0084 15.5363C30.0084 23.2884 23.5146 29.5726 15.5042 29.5726C7.49375 29.5726 1 23.2884 1 15.5363C1 7.78427 7.49375 1.5 15.5042 1.5C23.5146 1.5 30.0084 7.78427 30.0084 15.5363Z" stroke="#052224" stroke-width="2" stroke-linecap="round" stroke-linejoin="round"/>
</symbol>

<symbol id="Home" width="30" height="33" viewBox="-2 -1 27 33" fill="none">
<path d="M24.7678 32H2.23222C1.90542 32 1.592 31.8686 1.36091 31.6348C1.12983 31.4009 1.00001 31.0837 1.00001 30.753V12.731C0.999297 12.5589 1.0344 12.3886 1.10303 12.2312C1.17166 12.0738 1.27229 11.9327 1.39835 11.8173L12.6635 1.33085C12.8903 1.11816 13.1881 1 13.4974 1C13.8066 1 14.1044 1.11816 14.3312 1.33085L25.6017 11.8173C25.7267 11.9336 25.8266 12.0748 25.8952 12.232C25.9637 12.3893 25.9994 12.5591 26 12.731V30.753C26 31.0837 25.8702 31.4009 25.6391 31.6348C25.408 31.8686 25.0946 32 24.7678 32ZM10.6027 23.1798H16.4026C16.5226 23.1805 16.6412 23.2051 16.7518 23.2522C16.8624 23.2993 16.9627 23.368 17.047 23.4544C17.1313 23.5407 17.198 23.643 17.2433 23.7555C17.2886 23.8679 17.3115 23.9882 17.3108 24.1097V32H9.68919V24.1097C9.68849 23.9878 9.7116 23.867 9.7572 23.7542C9.8028 23.6414 9.86998 23.5389 9.95488 23.4525C10.0398 23.3661 10.1407 23.2975 10.2519 23.2507C10.3631 23.2039 10.4823 23.1798 10.6027 23.1798Z" stroke="#052224" stroke-width="2" stroke-linecap="round" stroke-linejoin="round"/>
</symbol>


<symbol id="Rent" width="29" height="25" viewBox="0 0 29 25" fill="none">
<g clip-path="url(#clip0_11_1091)">
<path d="M11.8383 17.894H17.5027C18.0235 17.8925 18.5226 17.6849 18.8909 17.3166C19.2592 16.9483 19.4668 16.4492 19.4683 15.9284C19.4653 15.4085 19.2571 14.9109 18.8889 14.5439C18.5208 14.1768 18.0226 13.97 17.5027 13.9685H13.9114C13.1055 13.959 12.3056 13.8291 11.538 13.5833C10.1162 13.2774 7.81651 13.2604 6.76292 15.9284H4.49714M19.4399 15.9284L24.5379 12.9262C24.9828 12.6567 25.5165 12.5745 26.0219 12.6976C26.5273 12.8208 26.9632 13.1393 27.2342 13.5833C27.5028 14.0279 27.5851 14.5605 27.4631 15.0654C27.3411 15.5703 27.0248 16.0066 26.5828 16.2796L19.9158 21.2983C18.7272 22.1928 17.2796 22.676 15.792 22.6747H4.46312M17.5481 7.04086L16.1602 8.43433C16.1517 8.44307 16.1416 8.45002 16.1304 8.45476C16.1192 8.45951 16.1072 8.46192 16.095 8.46192C16.0829 8.46192 16.071 8.45951 16.0598 8.45476C16.0486 8.45002 16.0383 8.44307 16.0299 8.43433L15.1746 7.03519H11.4361C11.1073 7.8906 10.5269 8.62623 9.77147 9.14502C9.01605 9.6638 8.12117 9.94135 7.20476 9.94106C6.00292 9.94106 4.85022 9.46363 4.00039 8.6138C3.15056 7.76397 2.6732 6.61134 2.6732 5.4095C2.6732 4.20765 3.15056 3.05503 4.00039 2.20519C4.85022 1.35536 6.00292 0.877931 7.20476 0.877931C8.12051 0.877201 9.01488 1.15394 9.77023 1.67166C10.5256 2.18938 11.1064 2.92379 11.4361 3.77813H19.7685L21.8983 5.58509L19.0661 8.51361L17.5481 7.06918M4.47446 14.9258C4.47446 14.8447 4.44221 14.7668 4.38484 14.7095C4.32748 14.6521 4.24968 14.6199 4.16855 14.6199H1.18337C1.10225 14.6199 1.02445 14.6521 0.967085 14.7095C0.909722 14.7668 0.877472 14.8447 0.877472 14.9258V23.666C0.877472 23.7472 0.909722 23.825 0.967085 23.8823C1.02445 23.9397 1.10225 23.9719 1.18337 23.9719H4.16855C4.24968 23.9719 4.32748 23.9397 4.38484 23.8823C4.44221 23.825 4.47446 23.7472 4.47446 23.666V14.9258Z" stroke="#052224" stroke-width="1.69934" stroke-linecap="round" stroke-linejoin="round"/>
<path d="M5.98701 6.34402C6.66274 6.34402 7.21053 5.79623 7.21053 5.1205C7.21053 4.44476 6.66274 3.89697 5.98701 3.89697C5.31128 3.89697 4.76349 4.44476 4.76349 5.1205C4.76349 5.79623 5.31128 6.34402 5.98701 6.34402Z" fill="#052224"/>
</g>
<defs>
<clipPath>
<rect width="28.3733" height="24.8216" fill="white"/>
</clipPath>
</defs>
</symbol>

<symbol id="Salary" width="33" height="30" viewBox="0 0 33 30" fill="none">
<path d="M22.0954 14.3623L13.3112 19.9998C13.1443 20.1069 12.9314 20.1115 12.76 20.0117L1.74648 13.597C1.40524 13.3982 1.39474 12.909 1.72714 12.6958L19.6889 1.17437C19.8558 1.06733 20.0685 1.06273 20.2399 1.16245L31.2532 7.5721C31.5946 7.77076 31.6052 8.26006 31.2728 8.47335L26.0871 11.8007M22.1007 18.8397L13.3111 24.4774C13.1442 24.5844 12.9315 24.589 12.7601 24.4893L1.74634 18.0794C1.4051 17.8808 1.39436 17.3917 1.72654 17.1783L4.66087 15.2933M28.3391 10.3584L31.2529 12.0547C31.5943 12.2534 31.6048 12.7428 31.2723 12.956L26.0391 16.3104M28.5526 14.6959L31.288 16.3911C31.6182 16.5958 31.622 17.075 31.295 17.2848L13.3112 28.8255C13.1443 28.9326 12.9314 28.9372 12.76 28.8374L1.74648 22.4227C1.40524 22.2239 1.39473 21.7347 1.72713 21.5215L4.5488 19.7115M14.2845 4.98352L25.7766 11.6748C25.9391 11.7694 26.0391 11.9433 26.0391 12.1313V20.3647C26.0391 20.5445 25.9476 20.712 25.7963 20.8092L22.9145 22.66C22.5629 22.8858 22.1007 22.6333 22.1007 22.2154V14.6659C22.1007 14.4779 22.0008 14.3041 21.8384 14.2094L10.8126 7.78474C10.4715 7.58601 10.4609 7.09706 10.7931 6.88376L13.7332 4.99554C13.9001 4.88833 14.113 4.88369 14.2845 4.98352Z" stroke="#093030" stroke-width="2.11321" stroke-linecap="round" stroke-linejoin="round"/>
</symbol>

<symbol id="Saving" width="45" height="43" viewBox="0 0 45 43" fill="none">
<path d="M30.4934 7.50878C30.4934 10.5512 24.1149 13.0176 16.2467 13.0176C8.37846 13.0176 2 10.5512 2 7.50878C2 4.46637 8.37846 2 16.2467 2C24.1149 2 30.4934 4.46637 30.4934 7.50878ZM30.4934 7.50878V15.7765M2.00003 7.51794V16.9185C2.00003 19.9606 8.34394 22.3999 16.2467 22.3999C17.3161 22.3999 18.3492 22.3542 19.3461 22.2628M2.00003 15.7857V26.3282C2.00003 29.3703 8.34394 31.8095 16.2467 31.8095C16.9355 31.8095 17.6061 31.7913 18.2586 31.7547M2.00003 24.4919V35.0801C2.00003 38.1223 8.34394 40.5615 16.2467 40.5615C18.9956 40.5855 21.7364 40.257 24.4032 39.584M27.2942 31.6268C27.2942 32.0511 27.3773 32.4712 27.5387 32.8631C27.7 33.2549 27.9365 33.6108 28.2345 33.9104C28.5325 34.21 28.8861 34.4474 29.2753 34.6089C29.6645 34.7704 30.0815 34.8529 30.5024 34.8517C31.3509 34.8517 32.1646 34.512 32.7646 33.9072C33.3645 33.3024 33.7016 32.4821 33.7016 31.6268C33.6379 31.0248 33.4127 30.4516 33.0502 29.9688C32.6878 29.4859 32.2018 29.1116 31.6443 28.8861C30.0312 27.9726 27.2942 27.6163 27.2942 25.2319C27.293 24.8069 27.3752 24.3858 27.536 23.9929C27.6968 23.6 27.933 23.243 28.2312 22.9425C28.5293 22.6419 28.8835 22.4037 29.2733 22.2416C29.6631 22.0795 30.0808 21.9967 30.5024 21.9979C30.9233 21.9979 31.3401 22.0816 31.7289 22.2442C32.1176 22.4069 32.4707 22.6453 32.7679 22.9457C33.0651 23.2461 33.3004 23.6027 33.4607 23.995C33.6209 24.3873 33.7028 24.8076 33.7016 25.2319M30.4934 21.9339V20.4083M30.4934 36.3682V34.8517M43 28.3928C43 35.3556 37.4006 41 30.4934 41C23.5861 41 17.9867 35.3556 17.9867 28.3928C17.9867 21.4301 23.5861 15.7857 30.4934 15.7857C37.4006 15.7857 43 21.4301 43 28.3928Z" stroke="#052224" stroke-width="3" stroke-linecap="round" stroke-linejoin="round"/>
</symbol>

<symbol id="Star" width="23" height="22" viewBox="0 0 23 22" fill="none">
<path d="M11.4902 1H11.5068C11.6523 0.998575 11.7965 1.02527 11.9307 1.07812L12.0615 1.13965C12.1884 1.20966 12.2995 1.3036 12.3896 1.41504L12.4727 1.53125L12.4785 1.54102L14.8672 5.3291L14.8711 5.33496C15.2526 5.93053 15.8199 6.37985 16.4805 6.61621L16.7695 6.7041L16.7725 6.70508L21.126 7.79688H21.127C21.2696 7.83258 21.4032 7.89548 21.5215 7.98047L21.6348 8.07227C21.742 8.17207 21.8287 8.29096 21.8906 8.42188L21.9443 8.55664C21.9893 8.69464 22.0074 8.83954 21.998 8.9834L21.9795 9.12695C21.9518 9.26945 21.8968 9.40551 21.8184 9.52734L21.7314 9.64453L21.7305 9.64551L18.8545 13.0801C18.3991 13.6235 18.1428 14.3021 18.1211 15.0049L18.126 15.3066V15.3096L18.4277 19.7725C18.4354 19.8897 18.4254 20.0074 18.3975 20.1211L18.3633 20.2334C18.3236 20.3443 18.2667 20.4482 18.1953 20.542L18.1191 20.6328C18.0381 20.7192 17.9441 20.7926 17.8408 20.8506L17.7344 20.9033C17.589 20.9664 17.4322 20.9985 17.2734 20.999C17.1615 20.9987 17.0504 20.984 16.9434 20.9531L16.8369 20.917L12.6738 19.251L12.667 19.249L12.3838 19.1523C12.097 19.0698 11.7994 19.0282 11.5 19.0273L11.4971 19.9609L11.5 19.0264L11.4922 19.0273C11.1947 19.0288 10.8992 19.071 10.6143 19.1533L10.333 19.249L10.3262 19.251L6.16309 20.917C6.02393 20.9718 5.87542 20.9988 5.72559 20.999C5.60666 20.9985 5.48869 20.9812 5.37598 20.9453L5.26465 20.9033C5.15562 20.8559 5.05487 20.7922 4.96582 20.7148L4.88086 20.6328C4.79977 20.5463 4.73237 20.4479 4.68164 20.3418L4.63672 20.2334C4.58389 20.0857 4.56199 19.9288 4.57227 19.7725L4.87402 15.3096V15.3066C4.92671 14.4981 4.66517 13.701 4.14453 13.0801H4.14551L1.26953 9.64551L1.26855 9.64453L1.18164 9.52734C1.12943 9.44623 1.08783 9.3589 1.05762 9.26758L1.02051 9.12695C0.992816 8.98445 0.993405 8.83831 1.02051 8.69629L1.05664 8.55664C1.10172 8.41834 1.17275 8.29021 1.26562 8.17871L1.36523 8.07227C1.47223 7.97272 1.59738 7.8948 1.7334 7.8418L1.87305 7.79688H1.87402L6.22754 6.70508L6.22852 6.7041C6.91552 6.53074 7.52225 6.13332 7.95312 5.57812L8.12695 5.33008L10.5205 1.54199L10.5273 1.53125C10.6026 1.40908 10.7008 1.30268 10.8164 1.21777L10.9375 1.14062C11.1063 1.04728 11.2968 0.998585 11.4902 1Z" stroke="#093030" stroke-width="2"/>
</symbol>


<symbol id="Transport" width="28" height="28" viewBox="0 0 28 28" fill="none">
<path d="M13.7168 5.30499V15.4047M8.5621 23.1877V25.0796C8.5621 25.4582 8.41174 25.8213 8.14405 26.089C7.87635 26.3566 7.51323 26.507 7.13465 26.507H5.61095C5.23236 26.507 4.86925 26.3566 4.60155 26.089C4.33385 25.8213 4.18349 25.4582 4.18349 25.0796V21.1145M18.8884 23.1877V25.0796C18.8884 25.4582 19.0388 25.8213 19.3065 26.089C19.5742 26.3566 19.9373 26.507 20.3159 26.507H21.8396C22.2181 26.507 22.5813 26.3566 22.849 26.089C23.1167 25.8213 23.267 25.4582 23.267 25.0796V21.1145M11.6322 20.718H15.7956M6.53988 17.6818C6.53988 17.6818 6.38127 19.7437 8.65838 19.4718M20.888 17.6818C20.888 17.6818 21.0466 19.7437 18.7695 19.4718M23.2897 6.97034H24.8134C25.0289 6.97034 25.2423 7.01287 25.4412 7.09549C25.6402 7.17812 25.8209 7.29919 25.973 7.4518C26.1251 7.60442 26.2455 7.78555 26.3274 7.98482C26.4094 8.18409 26.4512 8.39759 26.4505 8.61305V11.1847M4.16082 6.97034H2.63712C2.42166 6.97034 2.20825 7.01287 2.00927 7.09549C1.81028 7.17812 1.62962 7.29919 1.47753 7.4518C1.32545 7.60442 1.20502 7.78555 1.12309 7.98482C1.04116 8.18409 0.999264 8.39759 1.00001 8.61305V11.1847M6.33597 1H21.0975C22.2989 1 23.2727 1.97385 23.2727 3.17515V21.0182C23.2727 22.2195 22.2989 23.1933 21.0975 23.1933H6.33597C5.13467 23.1933 4.16082 22.2195 4.16082 21.0182V3.17515C4.16082 1.97385 5.13467 1 6.33597 1ZM6.26234 5.30499H21.1655C21.7229 5.30499 22.2574 5.5264 22.6515 5.92051C23.0456 6.31462 23.267 6.84914 23.267 7.4065V15.4047H4.16082V7.4065C4.16082 6.84914 4.38223 6.31462 4.77634 5.92051C5.17045 5.5264 5.70498 5.30499 6.26234 5.30499Z" stroke="#052224" stroke-width="1.69934" stroke-linecap="round" stroke-linejoin="round"/>
</symbol>

<symbol id="Vector" width="16" height="21" viewBox="0 0 16 21" fill="none">
<path d="M14.3891 16.4892L14.3954 15.8464H14.3891V16.4892ZM15.0853 14.9694L14.5607 15.3409L14.5692 15.353L14.5783 15.3647L15.0853 14.9694ZM13.479 11.0977L14.1123 10.9866L14.1109 10.9791L13.479 11.0977ZM12.1012 4.43707L12.6083 4.04202L12.6071 4.04038L12.1012 4.43707ZM8.00028 2.40052L8.00174 1.75766L7.99816 1.75767L8.00028 2.40052ZM3.89936 4.43707L3.39387 4.0399L3.39221 4.04203L3.89936 4.43707ZM2.52513 11.0977L1.89322 10.9793L1.89194 10.9866L2.52513 11.0977ZM0.918847 14.9694L1.42235 15.3691L1.4333 15.3553L1.44349 15.3409L0.918847 14.9694ZM1.61502 16.4892L1.61502 15.8462L1.60282 15.8465L1.61502 16.4892ZM7.36104 2.40053C7.36104 2.75557 7.64886 3.04339 8.0039 3.04339C8.35894 3.04339 8.64676 2.75557 8.64676 2.40053H7.36104ZM8.64676 1.14285C8.64676 0.787813 8.35894 0.499996 8.0039 0.499996C7.64886 0.499996 7.36104 0.787813 7.36104 1.14285H8.64676ZM8.00028 20L8.00162 19.3571L8.00028 19.3571L8.00028 20ZM14.3891 16.4892L14.3829 17.132C14.6804 17.1349 14.9703 17.0488 15.2183 16.8869L14.867 16.3485L14.5157 15.8102C14.4771 15.8354 14.4355 15.8468 14.3954 15.8464L14.3891 16.4892ZM14.867 16.3485L15.2183 16.8869C15.466 16.7253 15.6604 16.4959 15.7827 16.2289L15.1982 15.9612L14.6138 15.6935C14.59 15.7454 14.5546 15.7848 14.5157 15.8102L14.867 16.3485ZM15.1982 15.9612L15.7827 16.2289C15.9049 15.9621 15.9513 15.6663 15.9182 15.3753L15.2795 15.4481L14.6407 15.5208C14.6476 15.5811 14.6377 15.6413 14.6138 15.6935L15.1982 15.9612ZM15.2795 15.4481L15.9182 15.3753C15.8851 15.0843 15.7732 14.8062 15.5923 14.5741L15.0853 14.9694L14.5783 15.3647C14.611 15.4066 14.6339 15.4606 14.6407 15.5208L15.2795 15.4481ZM15.0853 14.9694L15.61 14.5979C14.855 13.5318 14.342 12.2965 14.1122 10.9866L13.479 11.0977L12.8458 11.2087C13.1081 12.7033 13.6941 14.117 14.5607 15.3409L15.0853 14.9694ZM13.479 11.0977L14.1109 10.9791C14.012 10.4525 13.9697 9.9087 13.9404 9.33844C13.9119 8.78221 13.895 8.17539 13.8439 7.59283C13.7397 6.40792 13.4847 5.16708 12.6083 4.04203L12.1012 4.43707L11.594 4.83212C12.2478 5.67143 12.4678 6.62102 12.5631 7.70538C12.6116 8.25746 12.6256 8.80499 12.6564 9.40441C12.6865 9.9898 12.7321 10.6029 12.8472 11.2162L13.479 11.0977ZM12.1012 4.43707L12.6071 4.04038C12.0511 3.33143 11.3506 2.75759 10.5542 2.36208L10.2682 2.93785L9.98229 3.51361C10.6038 3.82225 11.1551 4.27237 11.5953 4.83376L12.1012 4.43707ZM10.2682 2.93785L10.5542 2.36208C9.75759 1.9665 8.88589 1.75968 8.00174 1.75767L8.00028 2.40052L7.99881 3.04338C8.68374 3.04494 9.36095 3.20505 9.98229 3.51361L10.2682 2.93785ZM8.00028 2.40052L7.99816 1.75767C7.11435 1.76057 6.24313 1.96777 5.44688 2.36319L5.73282 2.93896L6.01875 3.51473C6.64019 3.20611 7.31738 3.04563 8.00239 3.04337L8.00028 2.40052ZM5.73282 2.93896L5.44688 2.36319C4.65077 2.75855 3.95027 3.33176 3.39387 4.0399L3.89936 4.43707L4.40485 4.83424C4.84563 4.27325 5.39717 3.82341 6.01875 3.51473L5.73282 2.93896ZM3.89936 4.43707L3.39221 4.04203C2.51573 5.16724 2.26166 6.40733 2.15846 7.59189C2.10773 8.17412 2.09139 8.78099 2.06315 9.33722C2.03419 9.90756 1.99209 10.4518 1.89326 10.9793L2.52513 11.0977L3.15699 11.2161C3.27209 10.6017 3.31747 9.98809 3.34721 9.40242C3.37766 8.80265 3.39124 8.2554 3.43932 7.70348C3.53374 6.61971 3.75286 5.67127 4.40652 4.83212L3.89936 4.43707ZM2.52513 11.0977L1.89194 10.9866C1.66212 12.2965 1.14912 13.5318 0.394203 14.5979L0.918847 14.9694L1.44349 15.3409C2.31011 14.117 2.89609 12.7033 3.15831 11.2087L2.52513 11.0977ZM0.918847 14.9694L0.415348 14.5697C0.231365 14.8015 0.11713 15.0805 0.0825798 15.373L0.720997 15.4484L1.35941 15.5238C1.3665 15.4638 1.3896 15.4103 1.42235 15.3691L0.918847 14.9694ZM0.720997 15.4484L0.0825798 15.373C0.0480334 15.6654 0.0940998 15.963 0.216963 16.2312L0.801421 15.9635L1.38588 15.6957C1.36209 15.6438 1.35232 15.5838 1.35941 15.5238L0.720997 15.4484ZM0.801421 15.9635L0.216963 16.2312C0.339904 16.4996 0.535902 16.7299 0.785717 16.8913L1.13462 16.3514L1.48353 15.8115C1.44488 15.7865 1.40959 15.7475 1.38588 15.6957L0.801421 15.9635ZM1.13462 16.3514L0.785717 16.8913C1.03588 17.053 1.32807 17.1376 1.62721 17.132L1.61502 16.4892L1.60282 15.8465C1.56312 15.8472 1.52183 15.8362 1.48353 15.8115L1.13462 16.3514ZM1.61502 16.4892V17.1321H14.3891V16.4892V15.8464H1.61502V16.4892ZM8.0039 2.40053H8.64676V1.14285H8.0039H7.36104V2.40053H8.0039ZM9.835 18.0774L9.19214 18.0786C9.19246 18.2507 9.16033 18.4205 9.09823 18.578L9.6963 18.8137L10.2944 19.0495C10.4163 18.7401 10.4785 18.4094 10.4779 18.0762L9.835 18.0774ZM9.6963 18.8137L9.09823 18.578C9.03616 18.7355 8.94576 18.8767 8.83361 18.9942L9.29868 19.438L9.76375 19.8818C9.99253 19.6421 10.1724 19.359 10.2944 19.0495L9.6963 18.8137ZM9.29868 19.438L8.83361 18.9942C8.72152 19.1116 8.59006 19.203 8.4476 19.2647L8.70296 19.8547L8.95831 20.4446C9.26148 20.3134 9.53491 20.1216 9.76375 19.8818L9.29868 19.438ZM8.70296 19.8547L8.4476 19.2647C8.3052 19.3263 8.15374 19.3575 8.00162 19.3571L8.00028 20L7.99895 20.6428C8.32897 20.6435 8.65509 20.5759 8.95831 20.4446L8.70296 19.8547ZM8.00028 20L8.00028 19.3571C7.84834 19.3571 7.69711 19.3258 7.55497 19.264L7.29871 19.8536L7.04245 20.4431C7.3451 20.5747 7.67069 20.6428 8.00028 20.6428L8.00028 20ZM7.29871 19.8536L7.55497 19.264C7.41276 19.2022 7.28156 19.1107 7.16972 18.9933L6.70421 19.4366L6.2387 19.88C6.46703 20.1197 6.73988 20.3116 7.04245 20.4431L7.29871 19.8536ZM6.70421 19.4366L7.16972 18.9933C7.05783 18.8758 6.96765 18.7347 6.90572 18.5774L6.30754 18.8129L5.70935 19.0483C5.83104 19.3575 6.01043 19.6403 6.2387 19.88L6.70421 19.4366ZM6.30754 18.8129L6.90572 18.5774C6.84378 18.42 6.81173 18.2505 6.81205 18.0786L6.1692 18.0774L5.52634 18.0762C5.52571 18.409 5.58768 18.7392 5.70935 19.0483L6.30754 18.8129Z" fill="#093030"/>
</symbol>


<symbol id="bring back" width="21" height="18" viewBox="0 0 21 18" fill="none">
<path d="M11.5642 1L0.999999 8.99685M0.999999 8.99685L11.5642 17M0.999999 8.99685L20 8.99686" stroke="#052224" stroke-width="2" stroke-linecap="round" stroke-linejoin="round"/>
</symbol>

<symbol id="Calender" width="20" height="18" viewBox="0 0 20 18" fill="none">
<path d="M3.59859 7.04477H17.0416M4.18351 0.791992V4.00778M7.96123 0.791992V4.00778M12.6815 0.791992V4.00778M16.4592 0.791992V4.00778M2.08903 2.64382H18.5537C18.7474 2.64382 18.9332 2.72078 19.0702 2.85778C19.2072 2.99478 19.2842 3.18058 19.2842 3.37433V15.1443C19.2842 15.5412 19.1265 15.9219 18.8458 16.2026C18.5651 16.4834 18.1844 16.641 17.7874 16.641H2.8553C2.45833 16.641 2.07762 16.4834 1.79692 16.2026C1.51622 15.9219 1.35852 15.5412 1.35852 15.1443V3.37433C1.35852 3.18058 1.43548 2.99478 1.57248 2.85778C1.70948 2.72078 1.89529 2.64382 2.08903 2.64382Z" stroke="#093030" stroke-width="1.27712" stroke-linecap="round" stroke-linejoin="round"/>
</symbol>

<symbol id="Car" width="40" height="25" viewBox="0 0 40 25" fill="none">
<path d="M32.7158 9.00514L31.0364 6.72475C28.5145 3.35524 26.0968 1.78906 19.9914 1.78906H19.525C13.4318 1.78906 11.0142 3.35524 8.47994 6.72475L6.96226 8.89453M6.99504 20.4524V21.9374C6.99504 22.148 6.95414 22.3566 6.87489 22.5511C6.79564 22.7457 6.67946 22.9225 6.53303 23.0714C6.38659 23.2203 6.21276 23.3384 6.02143 23.419C5.8301 23.4996 5.6251 23.5411 5.418 23.5411H3.71827C3.51118 23.5411 3.30618 23.4996 3.11485 23.419C2.92352 23.3384 2.74954 23.2203 2.6031 23.0714C2.45666 22.9225 2.34064 22.7457 2.26139 22.5511C2.18214 22.3566 2.14124 22.148 2.14124 21.9374V17.5259M32.3864 20.4524V21.9374C32.3864 22.3617 32.5517 22.7686 32.8461 23.0692C33.1406 23.3697 33.5401 23.5394 33.9573 23.5411H35.6263C36.0435 23.5394 36.443 23.3697 36.7374 23.0692C37.0318 22.7686 37.1972 22.3617 37.1972 21.9374V17.5259M7.76817 11.7603C7.76817 11.7603 6.61453 14.9301 10.1796 15.4605M31.7359 11.7603C31.7359 11.7603 32.8957 14.9301 29.3244 15.4605M15.9967 15.4605H23.0288M16.6287 18.2559H22.3967M7.32027 8.20358C7.32027 9.65746 1 9.65746 1 8.20358C1 6.7497 2.41126 5.5579 4.16006 5.5579C5.90886 5.5579 7.32027 6.72474 7.32027 8.20358ZM32.2514 8.20358C32.2514 9.65746 38.5717 9.65746 38.5717 8.20358C38.5717 6.7497 37.1603 5.5579 35.4115 5.5579C33.6627 5.5579 32.2514 6.72474 32.2514 8.20358ZM34.8961 10.5123C33.8297 9.35096 32.358 8.66096 30.7971 8.59045H8.57806C7.01739 8.66228 5.5463 9.35206 4.47915 10.5123C2.74875 12.3219 2.2149 14.8365 2.16581 17.2825C2.13065 17.8766 2.24693 18.4698 2.50333 19.0047C2.86536 19.6911 11.7076 21.5818 19.6846 21.5818C27.6616 21.5818 36.5467 19.61 36.8658 19.0047C37.1203 18.4693 37.2345 17.876 37.1972 17.2825C37.1604 14.8365 36.6265 12.3406 34.8961 10.5123Z" stroke="#052224" stroke-width="1.97746" stroke-linecap="round" stroke-linejoin="round"/>
</symbol>


<symbol id="Dolar" width="13" height="28" viewBox="0 0 13 28" fill="none">
<path d="M1 19.2631C1 20.6589 1.5794 21.9975 2.61075 22.9845C3.6421 23.9715 5.04089 24.5261 6.49943 24.5261M6.49943 24.5261C7.95798 24.5261 9.35681 23.9715 10.3882 22.9845C11.4195 21.9975 11.9989 20.6589 11.9989 19.2631C12.0164 18.4492 11.8243 17.6437 11.4396 16.9177C11.0549 16.1918 10.4893 15.5676 9.79288 15.1002C7.62417 13.8454 4.62899 14.22 2.72749 12.5251C2.18711 12.0406 1.75533 11.456 1.45836 10.8068C1.16138 10.1576 1.00544 9.45749 1 8.74884C0.999999 7.35245 1.5792 6.01314 2.61037 5.02519C3.64154 4.03723 5.04032 3.48145 6.49943 3.47987C7.95855 3.48145 9.35733 4.03723 10.3885 5.02519C11.4197 6.01314 11.9989 7.35245 11.9989 8.74884M6.49943 24.5261L6.49944 27M6.49944 1V3.47392" stroke="#093030" stroke-width="2" stroke-linecap="round" stroke-linejoin="round"/>
</symbol>

<symbol id="Entertainment" width="52" height="54" viewBox="0 0 52 54" fill="none">
<path d="M26.0413 12.2881L27.5869 13.6063M31.2235 16.7078L34.9713 19.9041M38.9513 23.2984L40.2786 24.4305M48.9338 22.1448L24.5369 50.7512C24.2369 51.1029 23.7882 51.3028 23.2897 51.3072C22.7911 51.3116 22.2834 51.12 21.8784 50.7745L15.8326 45.6184C16.5075 44.827 16.7926 43.7593 16.6254 42.6501C16.4581 41.5408 15.8521 40.481 14.9407 39.7036C14.4895 39.3171 13.9764 39.0114 13.4309 38.8044C12.8854 38.5974 12.3184 38.4932 11.7619 38.4974C11.2054 38.5016 10.6706 38.6143 10.1882 38.829C9.70573 39.0438 9.28497 39.3562 8.95023 39.7487L2.86805 34.5615C2.46296 34.2161 2.19358 33.745 2.11925 33.252C2.04491 32.759 2.17176 32.2846 2.47171 31.9329L26.8687 3.32654C27.1686 2.97483 27.6171 2.77464 28.1157 2.77023C28.6142 2.76582 29.1219 2.95747 29.527 3.30295L35.5728 8.4591C35.238 8.8516 34.9958 9.31645 34.8599 9.82675C34.724 10.3371 34.6972 10.8829 34.7809 11.4331C34.8646 11.9832 35.0572 12.5269 35.3477 13.0329C35.6383 13.5388 36.0208 13.9971 36.4738 14.3816C37.3852 15.1589 38.5274 15.59 39.6491 15.5801C40.7708 15.5702 41.7802 15.1201 42.4551 14.3287L48.5011 19.4851C48.7083 19.6545 48.8841 19.8583 49.0184 20.0847C49.1527 20.3111 49.2428 20.5555 49.2831 20.8034C49.3234 21.0512 49.3133 21.2976 49.2533 21.5279C49.1933 21.7583 49.0847 21.9681 48.9338 22.1448Z" stroke="#052224" stroke-width="3.625" stroke-linecap="round" stroke-linejoin="round"/>
</symbol>

<symbol id="Expense" width="12" height="12" viewBox="0 0 12 12" fill="none">
<rect x="0.5" y="0.5" width="11" height="11" rx="2.5" stroke="#052224"/>
<path d="M9 9.5C9.27614 9.5 9.5 9.27614 9.5 9L9.5 4.5C9.5 4.22386 9.27614 4 9 4C8.72386 4 8.5 4.22386 8.5 4.5L8.5 8.5L4.5 8.5C4.22386 8.5 4 8.72386 4 9C4 9.27614 4.22386 9.5 4.5 9.5L9 9.5ZM3 3L2.64645 3.35355L8.64645 9.35355L9 9L9.35355 8.64645L3.35355 2.64645L3 3Z" fill="#052224"/>
</symbol>

<symbol id="Eye-Pass" width="26" height="11" viewBox="0 0 26 11" fill="none">
<path d="M2.81442 1C8.31712 8.32781 17.113 8.55139 22.815 1.66714C22.9933 1.45438 23.1646 1.2308 23.3394 1M13.0752 6.66895V10M18.6303 5.20123L20.4447 8.42157M22.8115 1.66715L25.1364 3.83447M7.50955 5.20123L5.69512 8.42157M3.32484 1.66715L1 3.83447" stroke="#0E3E3E" stroke-width="1.63636" stroke-linecap="round" stroke-linejoin="round"/>
</symbol>

<symbol id="Facebook" width="35" height="35" viewBox="0 0 35 35" fill="none">
<path d="M29.3981 28.42C32.1719 25.4018 33.7108 21.4519 33.7103 17.3527C33.7103 15.2048 33.2872 13.0779 32.4651 11.0936C31.643 9.10928 30.438 7.30635 28.9189 5.7878C27.3999 4.26925 25.5966 3.06482 23.612 2.24332C21.6274 1.42182 19.5005 0.999334 17.3527 1C13.0157 1 8.8563 2.72286 5.78958 5.78958C2.72286 8.85631 1 13.0157 1 17.3527C1.00026 21.0809 2.27434 24.6971 4.61134 27.602C6.94833 30.5068 10.208 32.5259 13.8496 33.3246V22.5616H9.15848V17.6776H13.8546V13.4384C13.8546 12.1444 14.3688 10.9035 15.2837 9.98849C16.1987 9.07352 17.4395 8.5595 18.7334 8.5595H23.0488V13.4435H20.6576C20.1473 13.4435 19.658 13.6462 19.2971 14.007C18.9363 14.3679 18.7334 14.8573 18.7334 15.3676V17.6776H23.4144V22.5616H18.7334V33.6495C22.8181 33.3046 26.6244 31.4382 29.3981 28.42Z" stroke="white" stroke-width="1.3" stroke-linecap="round" stroke-linejoin="round"/>
</symbol>

<symbol id="Food" width="23" height="38" viewBox="0 0 23 38" fill="none">
<path d="M3.22189 3.19409L2 14.3021C2.00365 15.187 2.26933 16.0509 2.76358 16.7848C3.25782 17.5188 3.95847 18.0899 4.77701 18.426L3.92987 33.5052C3.91305 34.162 4.15708 34.7989 4.60853 35.2763C5.05998 35.7538 5.68227 36.0331 6.33907 36.053C6.99588 36.0331 7.618 35.7538 8.06945 35.2763C8.5209 34.7989 8.76493 34.162 8.74811 33.5052L8.17182 18.426C8.9909 18.0907 9.69208 17.5198 10.1864 16.7857C10.6808 16.0515 10.9461 15.1872 10.9488 14.3021L9.9561 3.19409M6.46397 3.569V15.038M20.6683 18.2177C20.2678 18.2713 19.9022 18.4741 19.6447 18.7856C19.3873 19.0971 19.257 19.4943 19.2798 19.8978L20.0436 33.5121C20.0604 34.169 19.8164 34.8058 19.3649 35.2833C18.9135 35.7608 18.2912 36.04 17.6344 36.06C16.9776 36.04 16.3554 35.7608 15.904 35.2833C15.4525 34.8058 15.2085 34.169 15.2253 33.5121L15.7599 19.2591C15.7701 18.9961 15.7283 18.7337 15.6365 18.487C15.5448 18.2404 15.4049 18.0144 15.2253 17.822V2C15.2253 2 23.1746 2.33323 20.6475 18.2177H20.6683Z" stroke="#093030" stroke-width="2.08276" stroke-linecap="round" stroke-linejoin="round"/>
</symbol>

<symbol id="Gift" width="51" height="54" viewBox="0 0 51 54" fill="none">
<path d="M44.6043 29.1557V48.0574C44.6043 48.9276 44.2586 49.7621 43.6433 50.3774C43.028 50.9927 42.1935 51.3384 41.3233 51.3384H9.4546C8.58444 51.3384 7.7499 50.9927 7.1346 50.3774C6.51929 49.7621 6.17367 48.9276 6.17367 48.0574V29.1557M25.389 17.1657C25.389 17.1657 37.3429 16.4781 40.3103 14.1621C41.7268 13.053 42.6472 11.4287 42.8709 9.64352C43.0946 7.85838 42.6035 6.05721 41.5044 4.63282C40.3946 3.21016 38.7665 2.28469 36.9763 2.05866C35.1862 1.83264 33.3795 2.32443 31.9508 3.42658C29.0076 5.74256 25.389 17.1657 25.389 17.1657ZM25.389 17.1657C25.389 17.1657 13.4349 16.4781 10.4676 14.1621C9.0502 13.0531 8.13002 11.4276 7.90847 9.64159C7.68691 7.85557 8.18205 6.05453 9.28551 4.6328C10.3934 3.20741 12.0216 2.27986 13.8127 2.05371C15.6038 1.82756 17.4117 2.32129 18.8391 3.42656C21.7703 5.74254 25.389 17.1657 25.389 17.1657ZM25.389 17.1657V51.3384M5.03972 17.1657H45.7503C47.4291 17.1657 48.79 18.5266 48.79 20.2054V24.7167C48.79 26.3955 47.4291 27.7564 45.7503 27.7564H5.03972C3.36093 27.7564 2 26.3955 2 24.7167V20.2054C2 18.5266 3.36093 17.1657 5.03972 17.1657Z" stroke="#052224" stroke-width="3.61872" stroke-linecap="round" stroke-linejoin="round"/>
</symbol>

<symbol id="Google" width="35" height="35" viewBox="0 0 35 35" fill="none">
<path d="M25.4603 11.3366C24.4256 9.946 23.0502 8.84552 21.4665 8.14124C19.8827 7.43695 18.1442 7.15261 16.4186 7.31565C14.1156 7.53784 11.9581 8.54222 10.3055 10.1615C8.65292 11.7809 7.60491 13.9174 7.33597 16.2154C7.1743 17.6291 7.31314 19.0609 7.74351 20.4171C8.17387 21.7733 8.88607 23.0233 9.83326 24.085C10.7805 25.1468 11.9414 25.9964 13.2398 26.5782C14.5383 27.1599 15.9449 27.4607 17.3678 27.4608C19.9056 27.46 22.3503 26.5036 24.2149 24.782C26.0795 23.0604 27.2275 20.6998 27.4303 18.1701C27.4373 18.0676 27.423 17.9649 27.3887 17.8681C27.3544 17.7713 27.3007 17.6826 27.2308 17.6075C27.1609 17.5323 27.0762 17.4723 26.9822 17.4311C26.8881 17.3899 26.7866 17.3684 26.6839 17.3679H17.4694M33.7053 17.3527C33.7053 26.384 26.384 33.7053 17.3527 33.7053C8.32134 33.7053 1 26.384 1 17.3527C1 8.32134 8.32134 1 17.3527 1C26.384 1 33.7053 8.32134 33.7053 17.3527Z" stroke="white" stroke-width="1.3" stroke-linecap="round" stroke-linejoin="round"/>
</symbol>

<symbol id="Groceries" width="19" height="30" viewBox="0 0 19 30" fill="none">
<path d="M1.43045 12.0735C1.33982 11.5864 1.26043 11.0823 1.19812 10.5668C0.580698 5.53111 1.67965 1.25441 3.65088 1.01084C5.62211 0.767267 7.72931 4.65876 8.34673 9.69446C8.41471 10.2609 8.46569 10.8557 8.49402 11.3938M1.77031 3.76943L4.23435 4.6984M1.02827 7.04348L4.05875 8.35764M3.63958 25.1358H15.1781M9.54191 12.2774C9.13755 11.8924 8.81563 11.4294 8.59557 10.9162C8.37552 10.4031 8.26192 9.85061 8.26173 9.29229C8.26173 8.20109 8.69492 7.1545 9.46598 6.38237C10.237 5.61025 11.2829 5.17572 12.3741 5.17422C13.4663 5.17422 14.5137 5.60808 15.286 6.38037C16.0583 7.15265 16.4922 8.20011 16.4922 9.29229C16.4931 9.75306 16.4165 10.2107 16.2657 10.6461M12.3741 6.53934C12.3741 6.53934 12.2494 3.95634 14.198 2.71016M1.27755 12.2774L2.41044 10.7764C2.49242 10.6695 2.59788 10.5828 2.7187 10.5232C2.83952 10.4636 2.97244 10.4326 3.10716 10.4326C3.24188 10.4326 3.37481 10.4636 3.49562 10.5232C3.61644 10.5828 3.7219 10.6695 3.80388 10.7764L4.85172 12.1472C4.89237 12.2011 4.94505 12.2449 5.0055 12.275C5.06596 12.3052 5.13253 12.3209 5.20008 12.3209C5.26763 12.3209 5.33434 12.3052 5.39479 12.275C5.45525 12.2449 5.50779 12.2011 5.54844 12.1472L6.59642 10.7764C6.6784 10.6695 6.78385 10.5828 6.90467 10.5232C7.02549 10.4636 7.15841 10.4326 7.29313 10.4326C7.42785 10.4326 7.56078 10.4636 7.6816 10.5232C7.80242 10.5828 7.90787 10.6695 7.98985 10.7764C7.98985 10.7764 8.5563 11.5297 8.9868 12.1018C9.03331 12.1629 9.09338 12.2124 9.16216 12.2465C9.23093 12.2805 9.30654 12.2982 9.38329 12.2982C9.46004 12.2982 9.53578 12.2805 9.60455 12.2465C9.67333 12.2124 9.7334 12.1629 9.77991 12.1018L10.7994 10.7877C10.8808 10.6808 10.9858 10.5943 11.1061 10.5346C11.2265 10.475 11.359 10.444 11.4934 10.444C11.6277 10.444 11.7602 10.475 11.8806 10.5346C12.0009 10.5943 12.1059 10.6808 12.1873 10.7877L13.2351 12.1585C13.2764 12.2125 13.3295 12.2563 13.3904 12.2864C13.4514 12.3166 13.5184 12.3322 13.5864 12.3322C13.6544 12.3322 13.7213 12.3166 13.7822 12.2864C13.8431 12.2563 13.8963 12.2125 13.9375 12.1585L14.9855 10.7877C15.0669 10.6808 15.1719 10.5943 15.2922 10.5346C15.4126 10.475 15.545 10.444 15.6793 10.444C15.8136 10.444 15.9462 10.475 16.0665 10.5346C16.1869 10.5943 16.2919 10.6808 16.3733 10.7877L17.5062 12.2888C17.6661 12.5033 17.7534 12.7632 17.7554 13.0308V27.005C17.7554 27.1932 17.7183 27.3796 17.6463 27.5535C17.5742 27.7273 17.4687 27.8853 17.3357 28.0184C17.2026 28.1515 17.0446 28.257 16.8707 28.329C16.6968 28.401 16.5104 28.4381 16.3222 28.4381H2.42745C2.04835 28.4366 1.68518 28.285 1.41764 28.0164C1.15011 27.7478 0.999997 27.3841 1 27.005V13.0195C1.00723 12.7481 1.10492 12.4869 1.27755 12.2774Z" stroke="#052224" stroke-width="1.69934" stroke-linecap="round" stroke-linejoin="round"/>
</symbol>


<symbol id="Icon-Notification" width="30" height="30" viewBox="0 0 30 30" fill="none">
<rect width="30" height="30" rx="15" fill="#DFF7E2"/>
<path d="M21.3891 20.4892L21.3954 19.8464H21.3891V20.4892ZM22.0853 18.9694L21.5607 19.3409L21.5692 19.353L21.5783 19.3647L22.0853 18.9694ZM20.479 15.0977L21.1123 14.9866L21.1109 14.9791L20.479 15.0977ZM19.1012 8.43707L19.6083 8.04202L19.6071 8.04038L19.1012 8.43707ZM15.0003 6.40052L15.0017 5.75766L14.9982 5.75767L15.0003 6.40052ZM10.8994 8.43707L10.3939 8.0399L10.3922 8.04203L10.8994 8.43707ZM9.52513 15.0977L8.89322 14.9793L8.89194 14.9866L9.52513 15.0977ZM7.91885 18.9694L8.42235 19.3691L8.4333 19.3553L8.44349 19.3409L7.91885 18.9694ZM8.61502 20.4892V19.8462L8.60282 19.8465L8.61502 20.4892ZM14.361 6.40053C14.361 6.75557 14.6489 7.04339 15.0039 7.04339C15.3589 7.04339 15.6468 6.75557 15.6468 6.40053H14.361ZM15.6468 5.14285C15.6468 4.78781 15.3589 4.5 15.0039 4.5C14.6489 4.5 14.361 4.78781 14.361 5.14285H15.6468ZM15.0003 24L15.0016 23.3571H15.0003L15.0003 24ZM21.3891 20.4892L21.3829 21.132C21.6804 21.1349 21.9703 21.0488 22.2183 20.8869L21.867 20.3485L21.5157 19.8102C21.4771 19.8354 21.4355 19.8468 21.3954 19.8464L21.3891 20.4892ZM21.867 20.3485L22.2183 20.8869C22.466 20.7253 22.6604 20.4959 22.7827 20.2289L22.1982 19.9612L21.6138 19.6935C21.59 19.7454 21.5546 19.7848 21.5157 19.8102L21.867 20.3485ZM22.1982 19.9612L22.7827 20.2289C22.9049 19.9621 22.9513 19.6663 22.9182 19.3753L22.2795 19.4481L21.6407 19.5208C21.6476 19.5811 21.6377 19.6413 21.6138 19.6935L22.1982 19.9612ZM22.2795 19.4481L22.9182 19.3753C22.8851 19.0843 22.7732 18.8062 22.5923 18.5741L22.0853 18.9694L21.5783 19.3647C21.611 19.4066 21.6339 19.4606 21.6407 19.5208L22.2795 19.4481ZM22.0853 18.9694L22.61 18.5979C21.855 17.5318 21.342 16.2965 21.1122 14.9866L20.479 15.0977L19.8458 15.2087C20.1081 16.7033 20.6941 18.117 21.5607 19.3409L22.0853 18.9694ZM20.479 15.0977L21.1109 14.9791C21.012 14.4525 20.9697 13.9087 20.9404 13.3384C20.9118 12.7822 20.895 12.1754 20.8439 11.5928C20.7397 10.4079 20.4847 9.16708 19.6083 8.04203L19.1012 8.43707L18.594 8.83212C19.2478 9.67143 19.4678 10.621 19.5631 11.7054C19.6116 12.2575 19.6256 12.805 19.6564 13.4044C19.6865 13.9898 19.7321 14.6029 19.8472 15.2162L20.479 15.0977ZM19.1012 8.43707L19.6071 8.04038C19.0511 7.33143 18.3506 6.75759 17.5542 6.36208L17.2682 6.93785L16.9823 7.51361C17.6038 7.82225 18.1551 8.27237 18.5953 8.83376L19.1012 8.43707ZM17.2682 6.93785L17.5542 6.36208C16.7576 5.9665 15.8859 5.75968 15.0017 5.75767L15.0003 6.40052L14.9988 7.04338C15.6837 7.04494 16.3609 7.20505 16.9823 7.51361L17.2682 6.93785ZM15.0003 6.40052L14.9982 5.75767C14.1143 5.76057 13.2431 5.96777 12.4469 6.36319L12.7328 6.93896L13.0187 7.51473C13.6402 7.20611 14.3174 7.04563 15.0024 7.04337L15.0003 6.40052ZM12.7328 6.93896L12.4469 6.36319C11.6508 6.75855 10.9503 7.33176 10.3939 8.0399L10.8994 8.43707L11.4049 8.83424C11.8456 8.27325 12.3972 7.82341 13.0187 7.51473L12.7328 6.93896ZM10.8994 8.43707L10.3922 8.04203C9.51573 9.16724 9.26166 10.4073 9.15846 11.5919C9.10773 12.1741 9.09139 12.781 9.06315 13.3372C9.03419 13.9076 8.99209 14.4518 8.89326 14.9793L9.52513 15.0977L10.157 15.2161C10.2721 14.6017 10.3175 13.9881 10.3472 13.4024C10.3777 12.8026 10.3912 12.2554 10.4393 11.7035C10.5337 10.6197 10.7529 9.67127 11.4065 8.83212L10.8994 8.43707ZM9.52513 15.0977L8.89194 14.9866C8.66212 16.2965 8.14912 17.5318 7.3942 18.5979L7.91885 18.9694L8.44349 19.3409C9.31011 18.117 9.89609 16.7033 10.1583 15.2087L9.52513 15.0977ZM7.91885 18.9694L7.41535 18.5697C7.23137 18.8015 7.11713 19.0805 7.08258 19.373L7.721 19.4484L8.35941 19.5238C8.3665 19.4638 8.3896 19.4103 8.42235 19.3691L7.91885 18.9694ZM7.721 19.4484L7.08258 19.373C7.04803 19.6654 7.0941 19.963 7.21696 20.2312L7.80142 19.9635L8.38588 19.6957C8.36209 19.6438 8.35232 19.5838 8.35941 19.5238L7.721 19.4484ZM7.80142 19.9635L7.21696 20.2312C7.3399 20.4996 7.5359 20.7299 7.78572 20.8913L8.13462 20.3514L8.48353 19.8115C8.44488 19.7865 8.40959 19.7475 8.38588 19.6957L7.80142 19.9635ZM8.13462 20.3514L7.78572 20.8913C8.03588 21.053 8.32807 21.1376 8.62721 21.132L8.61502 20.4892L8.60282 19.8465C8.56312 19.8472 8.52183 19.8362 8.48353 19.8115L8.13462 20.3514ZM8.61502 20.4892V21.1321H21.3891V20.4892V19.8464H8.61502V20.4892ZM15.0039 6.40053H15.6468V5.14285H15.0039H14.361V6.40053H15.0039ZM16.835 22.0774L16.1921 22.0786C16.1925 22.2507 16.1603 22.4205 16.0982 22.578L16.6963 22.8137L17.2944 23.0495C17.4163 22.7401 17.4785 22.4094 17.4779 22.0762L16.835 22.0774ZM16.6963 22.8137L16.0982 22.578C16.0362 22.7355 15.9458 22.8767 15.8336 22.9942L16.2987 23.438L16.7637 23.8818C16.9925 23.6421 17.1724 23.359 17.2944 23.0495L16.6963 22.8137ZM16.2987 23.438L15.8336 22.9942C15.7215 23.1116 15.5901 23.203 15.4476 23.2647L15.703 23.8547L15.9583 24.4446C16.2615 24.3134 16.5349 24.1216 16.7637 23.8818L16.2987 23.438ZM15.703 23.8547L15.4476 23.2647C15.3052 23.3263 15.1537 23.3575 15.0016 23.3571L15.0003 24L14.9989 24.6428C15.329 24.6435 15.6551 24.5759 15.9583 24.4446L15.703 23.8547ZM15.0003 24L15.0003 23.3571C14.8483 23.3571 14.6971 23.3258 14.555 23.264L14.2987 23.8536L14.0425 24.4431C14.3451 24.5747 14.6707 24.6428 15.0003 24.6428L15.0003 24ZM14.2987 23.8536L14.555 23.264C14.4128 23.2022 14.2816 23.1107 14.1697 22.9933L13.7042 23.4366L13.2387 23.88C13.467 24.1197 13.7399 24.3116 14.0425 24.4431L14.2987 23.8536ZM13.7042 23.4366L14.1697 22.9933C14.0578 22.8758 13.9677 22.7347 13.9057 22.5774L13.3075 22.8129L12.7094 23.0483C12.831 23.3575 13.0104 23.6403 13.2387 23.88L13.7042 23.4366ZM13.3075 22.8129L13.9057 22.5774C13.8438 22.42 13.8117 22.2505 13.8121 22.0786L13.1692 22.0774L12.5263 22.0762C12.5257 22.409 12.5877 22.7392 12.7094 23.0483L13.3075 22.8129Z" fill="#093030"/>
</symbol>

<symbol id="Income" width="12" height="12" viewBox="0 0 12 12" fill="none">
<rect x="0.5" y="11.5" width="11" height="11" rx="2.5" transform="rotate(-90 0.5 11.5)" stroke="#052224"/>
<path d="M9.5 3C9.5 2.72386 9.27614 2.5 9 2.5L4.5 2.5C4.22386 2.5 4 2.72386 4 3C4 3.27614 4.22386 3.5 4.5 3.5L8.5 3.5L8.5 7.5C8.5 7.77614 8.72386 8 9 8C9.27614 8 9.5 7.77614 9.5 7.5L9.5 3ZM3 9L3.35355 9.35355L9.35355 3.35355L9 3L8.64645 2.64645L2.64645 8.64645L3 9Z" fill="#052224"/>
</symbol>

<symbol id="Medicine" width="40" height="50" viewBox="0 0 40 50" fill="none">
<path d="M8.02571 21.525L25.2523 28.255M27.8198 24.217C30.3781 24.6752 32.7109 25.9724 34.4498 27.9039C36.1888 29.8354 37.2348 32.2911 37.4228 34.8832C37.6009 37.5109 36.8887 40.1219 35.4009 42.2951C33.9131 44.4683 31.7365 46.0769 29.2224 46.8615C27.6011 47.3669 25.8886 47.5103 24.2059 47.2817C22.5232 47.053 20.9111 46.4578 19.4835 45.5381M35.7601 30.3136L20.3433 40.7988M25.3788 2.63785C30.1344 4.49872 32.4803 9.86493 30.6183 14.6235L19.861 42.1153C17.999 46.8739 12.6342 49.223 7.87851 47.3621C3.12282 45.5013 0.77696 40.1351 2.63896 35.3765L13.3963 7.88471C15.2583 3.12611 20.6231 0.77699 25.3788 2.63785Z" stroke="#052224" stroke-width="3.39328" stroke-linecap="round" stroke-linejoin="round"/>
</symbol>

</svg>
